<?xml version="1.0" standalone="no"?>
<!DOCTYPE svg PUBLIC "-//W3C//DTD SVG 20010904//EN"
 "http://www.w3.org/TR/2001/REC-SVG-20010904/DTD/svg10.dtd">
<svg version="1.0" xmlns="http://www.w3.org/2000/svg"
 width="1280.000000pt" height="1280.000000pt" viewBox="0 0 1280.000000 1280.000000"
 preserveAspectRatio="xMidYMid meet">
<metadata>
Created by potrace 1.15, written by Peter Selinger 2001-2017
</metadata>
<g transform="translate(0.000000,1280.000000) scale(0.100000,-0.100000)"
fill="#000000" stroke="none">
<path d="M7765 12044 c-78 -34 -110 -60 -140 -116 -9 -17 -24 -28 -36 -28 -12
0 -37 -16 -56 -35 -30 -30 -33 -37 -22 -57 6 -13 20 -32 30 -43 30 -33 28
-248 -6 -537 l-27 -238 37 -117 c29 -93 52 -142 107 -232 69 -111 73 -115 194
-205 103 -77 139 -97 226 -129 57 -21 109 -41 115 -45 6 -4 14 -28 18 -53 7
-45 6 -46 -40 -87 -33 -29 -54 -40 -69 -37 -22 5 -226 19 -516 36 -281 17
-1425 23 -1766 10 -872 -33 -1524 -111 -1739 -206 -57 -25 -165 -120 -165
-145 0 -6 -22 -32 -50 -59 -40 -38 -50 -55 -50 -81 0 -17 -9 -43 -20 -57 -26
-33 -26 -83 0 -116 24 -30 25 -36 4 -51 -25 -19 -30 -91 -8 -123 48 -72 53
-92 39 -133 -7 -21 -21 -85 -30 -143 -13 -86 -14 -119 -5 -185 14 -101 36
-190 56 -220 13 -20 18 -21 31 -10 13 11 15 30 9 130 -5 81 -4 118 3 118 7 0
11 -22 11 -53 0 -59 23 -139 46 -158 11 -9 17 -9 29 1 12 10 15 37 15 128 0
112 1 115 19 98 14 -13 24 -14 44 -7 13 5 27 15 29 21 2 6 36 -123 77 -287 41
-164 79 -312 86 -329 8 -21 9 -36 3 -48 -7 -12 -5 -24 6 -41 13 -20 16 -57 16
-204 l0 -180 -31 -45 c-23 -32 -32 -56 -32 -86 0 -30 9 -53 32 -85 l31 -43 0
-220 c0 -187 -2 -221 -16 -233 -57 -47 -57 -151 0 -198 24 -20 24 -472 0 -492
-23 -19 -44 -65 -44 -97 0 -16 13 -47 28 -68 l29 -39 6 -225 5 -224 -29 -33
c-51 -59 -51 -108 1 -167 l30 -34 0 -228 c0 -212 -1 -230 -18 -241 -11 -6 -27
-28 -36 -47 -21 -44 -10 -89 29 -126 l25 -23 0 -238 c0 -186 -3 -240 -13 -246
-26 -16 -47 -58 -47 -93 0 -27 8 -44 30 -65 l30 -29 0 -242 c0 -190 -3 -245
-13 -251 -24 -14 -47 -57 -47 -85 0 -16 12 -41 30 -61 l30 -35 0 -246 c0 -160
-4 -246 -10 -246 -15 0 -50 -61 -50 -87 0 -12 14 -38 31 -57 30 -35 30 -36 25
-128 -3 -51 -7 -111 -9 -133 -7 -67 -67 -276 -98 -342 -16 -33 -32 -76 -36
-93 l-6 -33 -14 27 c-8 15 -18 24 -22 21 -5 -3 -11 2 -15 10 -3 8 -10 15 -15
15 -10 0 -110 -129 -128 -165 -35 -68 -54 -153 -55 -239 0 -52 -4 -78 -7 -61
-4 20 -9 26 -14 17 -6 -9 -13 -9 -28 -2 -10 6 -19 7 -19 2 0 -5 -11 -8 -25 -7
-14 2 -23 -1 -19 -6 3 -5 -7 -9 -21 -9 -18 0 -24 4 -20 13 4 6 1 5 -7 -3 -7
-8 -19 -15 -25 -16 -30 -2 -34 -5 -28 -14 3 -6 1 -10 -4 -10 -6 0 -11 4 -11 8
0 5 -7 9 -15 9 -8 0 -15 -4 -15 -8 0 -5 -16 -11 -35 -15 -19 -3 -35 -10 -35
-16 0 -5 -6 -6 -12 -1 -19 11 -40 10 -69 -4 -15 -7 -30 -9 -34 -5 -5 4 -5 1
-1 -5 5 -8 1 -14 -11 -15 -10 0 -22 -2 -28 -3 -5 -2 -21 -3 -34 -4 -21 -1 -22
-3 -10 -18 13 -15 12 -15 -10 -4 -13 7 -21 8 -17 3 3 -6 -7 -20 -22 -31 -23
-16 -32 -18 -42 -8 -10 10 -12 9 -7 -5 4 -11 -1 -18 -19 -22 -19 -5 -24 -13
-24 -39 0 -22 3 -28 9 -18 6 9 9 5 9 -14 0 -19 -3 -23 -9 -14 -7 11 -11 11
-21 1 -10 -10 -10 -17 0 -32 17 -28 15 -48 -3 -24 -13 16 -14 16 -9 2 3 -10 1
-18 -5 -18 -6 0 -11 -5 -11 -11 0 -6 6 -9 13 -6 9 3 13 -2 12 -16 -2 -17 -8
-21 -26 -19 -13 1 -19 -1 -14 -5 13 -10 17 -33 6 -33 -12 0 -21 -39 -10 -46 5
-3 9 -10 9 -15 0 -6 -3 -8 -7 -6 -5 3 -16 -6 -26 -18 -12 -17 -14 -26 -5 -31
7 -4 8 -3 4 4 -5 8 -1 10 9 5 9 -3 12 -9 7 -12 -5 -3 -9 -13 -9 -21 0 -8 -3
-25 -7 -36 -6 -18 -3 -21 19 -19 22 3 24 1 14 -17 -7 -13 -7 -18 -1 -14 6 4
17 -1 24 -9 40 -49 69 -75 82 -75 8 0 20 -8 25 -17 6 -10 11 -14 11 -9 0 7 67
-38 80 -54 3 -4 17 -10 32 -13 15 -4 34 -14 42 -23 9 -8 16 -13 16 -9 0 3 10
0 23 -7 12 -7 25 -11 30 -10 4 1 7 -3 7 -10 0 -6 3 -9 6 -6 3 4 22 -1 42 -9
20 -9 44 -16 52 -17 8 -1 26 -7 40 -13 206 -90 1275 -263 1995 -322 402 -33
1041 -43 1415 -21 965 56 1683 223 2008 466 143 108 181 200 181 439 1 250
-33 335 -170 434 -22 17 -53 50 -68 73 -32 50 -73 87 -139 125 -26 15 -72 47
-102 71 -74 60 -188 115 -342 167 -71 24 -129 46 -130 50 0 3 22 48 50 99 60
109 106 241 123 356 19 130 6 427 -25 565 -55 255 -153 473 -298 664 -26 35
-48 68 -48 73 0 5 10 22 21 38 32 43 36 116 10 168 -11 22 -25 43 -31 47 -6 4
-10 93 -10 239 0 200 2 235 16 247 53 44 58 150 11 213 l-27 35 0 226 0 226
25 34 c52 67 52 142 0 203 l-25 30 0 230 0 229 29 37 c52 65 52 127 2 190
l-28 35 5 223 5 223 64 90 c184 255 280 501 319 814 32 257 6 503 -71 677 -14
31 -24 59 -22 61 11 10 93 -98 122 -160 18 -40 40 -78 48 -86 58 -47 38 117
-24 202 -21 30 -26 46 -22 71 6 41 -11 76 -71 143 -25 28 -46 53 -46 56 0 2
30 7 68 10 37 3 130 16 207 28 109 18 147 28 172 47 18 13 37 21 43 17 5 -3
18 7 28 24 9 17 20 31 23 31 3 0 3 -40 1 -90 -4 -79 -2 -90 12 -90 19 0 55 71
56 108 0 22 12 27 56 23 28 -2 39 48 24 115 -8 33 -8 50 0 58 5 5 10 28 10 51
0 40 1 41 43 53 62 17 105 47 121 85 8 19 19 38 25 41 17 11 13 93 -5 122 -15
23 -15 26 0 43 23 25 24 106 2 130 -9 9 -16 32 -16 51 0 26 -10 42 -50 81 -27
27 -50 53 -50 59 0 22 -119 130 -163 149 -90 39 -367 97 -557 117 -110 12
-110 11 -21 92 57 52 87 72 107 72 14 0 84 25 155 56 71 31 133 54 138 52 5
-1 50 -55 101 -118 139 -172 234 -280 246 -280 5 0 40 38 77 85 37 47 73 85
81 85 8 0 108 -20 222 -45 115 -25 216 -43 225 -40 20 7 30 27 21 42 -12 17
-121 78 -412 229 -219 113 -299 160 -346 202 -61 54 -61 54 -112 202 -48 141
-60 163 -228 437 -97 158 -205 326 -239 373 -99 135 -154 222 -240 378 l-80
147 -119 26 c-191 43 -190 43 -281 3z m645 -1852 c0 -2 -24 -30 -52 -63 -51
-56 -55 -59 -100 -59 -27 0 -48 2 -48 5 0 3 28 32 63 64 54 52 67 59 100 58
20 -1 37 -3 37 -5z m-4483 -1204 c-3 -8 -6 -5 -6 6 -1 11 2 17 5 13 3 -3 4
-12 1 -19z m1765 -266 l47 -7 -54 -79 c-30 -44 -55 -88 -55 -98 0 -28 45 -23
161 21 57 21 115 42 129 46 24 8 24 7 7 -18 -23 -35 -22 -57 3 -57 17 0 19 -3
10 -20 -33 -63 -62 -200 -41 -200 5 0 36 20 68 44 93 68 123 80 123 51 0 -31
33 -13 108 57 42 40 80 77 84 83 4 5 19 -17 33 -50 15 -32 35 -71 45 -85 10
-14 22 -38 25 -53 9 -35 37 -35 63 -2 l20 26 63 -41 c34 -22 70 -40 81 -40 22
0 21 -5 2 60 -11 37 -14 70 -9 108 7 54 7 54 37 48 41 -8 60 8 48 40 -6 15 -6
24 0 24 6 0 10 29 10 65 l0 65 33 1 c17 0 51 2 75 6 39 4 50 1 111 -40 l68
-45 58 -234 c32 -128 61 -237 66 -242 4 -5 4 -17 -2 -28 -6 -11 -6 -25 0 -35
5 -10 12 -48 16 -85 7 -64 6 -70 -24 -114 -40 -60 -40 -98 -1 -155 l30 -44 -6
-200 c-7 -191 -8 -202 -32 -237 -20 -30 -24 -46 -19 -79 3 -23 15 -51 26 -63
12 -12 21 -32 21 -44 l0 -22 -528 0 c-291 0 -751 3 -1024 7 l-495 6 -14 23
c-8 12 -43 66 -79 121 -107 161 -153 272 -204 493 -35 148 -39 455 -7 580 17
69 20 75 15 33 -7 -64 16 -151 51 -190 l25 -28 19 22 c10 12 21 45 25 74 9 70
27 109 70 157 25 27 42 38 55 35 23 -6 58 37 67 83 8 44 24 54 24 16 0 -35 19
-92 30 -92 5 0 16 9 24 21 14 21 15 21 79 -25 60 -43 95 -56 98 -38 1 4 3 41
4 82 2 94 22 140 59 133 21 -4 26 0 32 21 l6 26 54 -31 c78 -44 86 -38 78 66
l-7 85 34 -1 c19 0 55 -4 81 -7z m2613 -377 c70 -239 46 -598 -55 -866 -41
-108 -88 -207 -112 -238 -18 -23 -18 -19 -18 206 0 197 2 232 16 244 26 21 44
66 44 108 0 31 -7 49 -30 74 l-30 35 0 161 c0 93 4 161 9 161 16 0 23 38 12
59 -7 12 -7 22 -2 26 5 3 13 19 16 36 l7 31 27 -26 c15 -14 32 -26 39 -26 20
0 14 61 -11 115 -19 40 -22 57 -15 83 l9 33 39 -78 c21 -43 46 -105 55 -138z
m-673 176 c8 -10 20 -20 25 -22 14 -6 56 -167 54 -209 0 -19 4 -45 11 -57 9
-18 7 -27 -16 -53 -33 -40 -34 -83 -1 -126 25 -33 25 -33 25 -262 l0 -229 -25
-23 c-13 -13 -32 -43 -41 -67 -16 -40 -16 -46 0 -86 9 -24 28 -54 41 -67 24
-23 25 -29 25 -147 l0 -123 -140 0 -140 0 0 166 0 167 35 38 c48 53 48 101 1
157 l-33 41 4 223 c2 123 9 235 15 250 5 15 7 31 4 36 -5 9 85 380 98 401 11
17 40 13 58 -8z m-2927 -1107 c80 -214 181 -378 345 -563 62 -70 249 -227 670
-563 245 -196 528 -478 583 -583 9 -16 16 -25 17 -19 0 25 -85 137 -215 279
l-137 150 155 -156 c151 -151 156 -158 211 -269 31 -63 56 -124 56 -136 0 -11
6 -34 14 -50 50 -100 96 -536 96 -904 l0 -165 -41 1 c-42 1 -206 76 -222 102
-4 6 -21 12 -37 12 -17 0 -30 -5 -30 -12 -1 -26 -71 -47 -140 -41 -36 3 -84 0
-107 -6 -35 -10 -43 -17 -54 -49 -6 -20 -16 -43 -22 -50 -10 -13 -15 -46 -22
-165 -2 -32 -9 -83 -15 -114 -5 -31 -10 -84 -10 -117 0 -42 -5 -65 -17 -80
-17 -20 -17 -20 0 -7 14 11 17 11 17 -2 0 -8 -7 -20 -16 -28 -33 -27 -77 -103
-144 -250 -38 -83 -99 -204 -135 -270 -36 -65 -70 -131 -75 -146 -5 -16 -18
-53 -29 -83 -24 -63 -26 -74 -9 -64 7 5 9 2 6 -7 -22 -58 -18 -75 11 -46 8 8
7 -1 -3 -25 -22 -53 -21 -54 26 -16 28 22 40 27 35 15 -10 -25 3 -21 40 15 24
23 33 28 33 16 0 -26 51 26 100 102 l42 65 -6 -45 c-4 -25 -16 -58 -27 -73
-26 -36 -89 -167 -89 -186 0 -7 -12 -33 -27 -56 -25 -41 -30 -43 -97 -54 -212
-35 -431 -97 -541 -155 -33 -17 -63 -32 -66 -34 -3 -1 -6 3 -7 10 0 7 -8 33
-17 58 -58 158 -58 431 0 680 82 346 299 671 605 905 98 75 153 121 259 219
53 48 105 93 116 98 11 5 35 29 53 53 18 24 66 78 106 122 67 71 159 184 303
370 97 125 154 262 152 362 l-2 56 -7 -70 c-8 -83 -36 -158 -85 -232 -35 -52
-234 -265 -235 -251 0 5 39 50 86 100 82 89 164 199 164 220 0 6 -19 -18 -42
-53 -64 -96 -378 -401 -558 -542 -394 -308 -609 -489 -684 -574 -155 -175
-281 -399 -347 -615 -18 -60 -37 -108 -41 -108 -4 0 -8 90 -8 201 0 199 0 201
25 231 55 65 55 151 0 216 -25 30 -25 32 -25 232 0 200 0 202 25 231 52 62 52
146 0 207 -25 30 -25 31 -25 240 0 178 2 212 16 223 61 50 58 166 -5 223 -20
18 -21 28 -21 222 l0 204 35 46 c52 67 46 144 -14 198 -20 18 -21 28 -21 227
l0 207 36 53 c31 47 35 60 31 97 -3 28 -15 57 -36 82 l-31 39 0 214 c0 205 1
215 21 233 63 57 63 141 0 198 -19 17 -21 29 -20 130 l1 111 18 -71 c10 -38
35 -115 55 -170z m2990 -1345 c-19 -21 -37 -50 -41 -63 -9 -35 11 -88 46 -121
l30 -29 0 -234 0 -235 -35 -38 c-59 -65 -59 -113 0 -178 l35 -38 0 -237 0
-237 -34 -33 c-60 -56 -60 -109 0 -176 20 -22 33 -40 29 -40 -4 0 -67 48 -141
108 l-134 107 0 134 c0 127 1 134 25 162 50 61 50 137 0 198 -25 28 -25 32
-25 214 0 160 2 186 17 198 9 8 25 33 35 57 23 52 18 85 -23 141 l-29 41 0
180 0 181 30 37 c42 53 47 91 20 147 -12 25 -21 48 -19 49 2 2 58 47 124 100
l120 96 3 -226 2 -226 -35 -39z m-676 -76 c-133 -137 -249 -290 -249 -327 0
-6 12 9 26 34 14 25 42 65 62 90 48 59 254 271 259 266 2 -2 -7 -21 -22 -41
-32 -48 -32 -82 0 -129 25 -36 25 -39 25 -248 0 -210 0 -210 -25 -240 -16 -19
-25 -42 -25 -63 0 -21 9 -44 25 -63 24 -29 25 -33 25 -198 l0 -168 -87 85
c-114 110 -189 194 -224 248 -16 25 -29 41 -29 35 0 -27 102 -155 235 -294
l90 -94 -82 73 c-150 132 -257 267 -288 361 -9 28 -19 50 -21 47 -2 -2 6 -32
18 -67 26 -78 94 -180 244 -366 l114 -141 -15 -37 c-18 -43 -12 -73 21 -109
24 -26 24 -27 24 -245 l0 -219 -25 -23 c-18 -17 -25 -34 -25 -61 0 -25 8 -47
25 -67 25 -30 25 -30 25 -242 0 -212 0 -212 -25 -242 -16 -19 -25 -42 -25 -63
0 -21 9 -44 25 -63 25 -29 25 -33 25 -200 0 -106 -4 -173 -10 -177 -6 -4 -10
-21 -9 -38 1 -18 -5 -58 -15 -91 l-17 -58 -25 33 c-14 19 -36 57 -48 84 -13
28 -30 56 -39 64 -10 7 -17 20 -17 29 0 19 -269 292 -327 333 l-43 30 0 124
c0 108 2 125 16 125 9 0 28 8 42 19 15 10 68 39 117 65 102 52 215 151 215
186 0 12 -23 50 -51 84 -53 64 -164 166 -180 166 -5 0 -16 15 -24 33 -37 79
-97 159 -125 169 -12 4 -13 43 -2 294 17 417 47 665 99 825 l18 54 6 -100 5
-100 2 102 c3 176 47 258 240 455 69 71 128 128 131 128 3 0 -24 -30 -60 -67z
m611 -1714 c36 -30 67 -57 68 -62 2 -4 7 -5 11 -2 5 2 11 -57 14 -132 l6 -137
-39 -43 c-33 -35 -40 -50 -40 -83 0 -33 7 -48 41 -85 l41 -45 -4 -237 -4 -238
-37 -37 c-31 -30 -37 -43 -37 -77 0 -33 6 -46 35 -74 l35 -34 0 -117 c0 -64
-3 -116 -7 -116 -5 0 -48 7 -98 15 -49 8 -93 15 -96 15 -10 0 -51 169 -54 222
-2 35 2 51 16 64 26 23 42 79 35 118 -4 19 -20 52 -36 75 l-30 41 0 171 c0
167 0 171 25 204 52 67 52 142 0 203 -25 29 -25 33 -25 209 0 177 0 180 24
202 14 13 30 36 36 51 l12 29 21 -23 c12 -13 51 -47 87 -77z m-1121 -102 c-1
-12 -5 -35 -9 -52 -7 -28 -8 -27 -9 13 0 24 -6 52 -12 63 -10 19 -9 19 10 9
12 -6 21 -20 20 -33z m204 -189 l28 -27 -63 -29 c-115 -54 -108 -60 -108 86
l0 125 57 -64 c32 -35 70 -76 86 -91z m-203 -18 c0 -102 -2 -120 -15 -120 -12
0 -15 7 -10 33 10 55 14 90 14 150 1 31 3 57 6 57 3 0 5 -54 5 -120z m1658
-309 c46 -96 116 -302 126 -366 3 -22 12 -78 20 -125 22 -132 16 -390 -13
-507 l-23 -92 -36 22 c-20 13 -50 28 -65 35 -22 9 -27 17 -22 30 24 62 17 132
-20 186 -25 36 -25 39 -25 256 0 137 4 221 10 225 23 14 50 86 50 133 0 36 -7
60 -30 95 -26 42 -30 57 -30 122 0 41 4 75 8 75 5 0 27 -40 50 -89z m-1655
-83 c12 -142 12 -142 -29 -162 -33 -15 -36 -15 -30 -1 3 9 6 33 6 53 0 29 3
34 11 22 11 -15 8 30 -7 107 -8 42 0 63 24 63 17 0 20 -11 25 -82z m-209 -150
c4 -55 2 -99 -3 -102 -11 -7 -18 9 -27 70 -6 45 -8 47 -17 24 -11 -25 -11 -25
-15 8 -3 34 36 119 49 105 3 -5 9 -52 13 -105z m198 -512 c43 -63 40 -66 -62
-66 -72 0 -89 3 -83 13 4 7 28 39 53 71 39 51 46 56 55 41 5 -10 22 -36 37
-59z m-1739 -628 c-9 -18 -23 -6 -32 30 -16 56 -13 61 13 17 12 -22 21 -43 19
-47z m-1515 -763 c-3 -3 -9 2 -12 12 -6 14 -5 15 5 6 7 -7 10 -15 7 -18z"/>
<path d="M6326 5325 c-9 -26 -7 -32 5 -12 6 10 9 21 6 23 -2 3 -7 -2 -11 -11z"/>
<path d="M3278 1605 c-3 -13 -2 -22 2 -20 11 7 20 45 10 45 -4 0 -10 -11 -12
-25z"/>
<path d="M3179 1514 c6 -12 7 -24 4 -28 -3 -3 -1 -6 5 -6 16 0 15 12 -4 36
-15 18 -15 18 -5 -2z"/>
</g>
</svg>
